{
    "asset" : {
        "copyright" : "DimensionStream",
        "generator" : "Khronos glTF Blender I/O v1.2.75",
        "version" : "2.0"
    },
    "scene" : 0,
    "scenes" : [
        {
            "name" : "Scene",
            "nodes" : [
                0,
                1,
                2,
                3,
                4
            ]
        }
    ],
    "nodes" : [
        {
            "name" : "Text.001",
            "rotation" : [
                0.7071067690849304,
                0,
                0,
                0.7071067690849304
            ]
        },
        {
            "mesh" : 0,
            "name" : "Text.002",
            "rotation" : [
                0.7071067690849304,
                0,
                0,
                0.7071067690849304
            ]
        },
        {
            "mesh" : 1,
            "name" : "DarkBlue.001",
            "rotation" : [
                0.7071067690849304,
                0,
                0,
                0.7071067690849304
            ]
        },
        {
            "mesh" : 2,
            "name" : "Logo",
            "rotation" : [
                0.7071067690849304,
                0,
                0,
                0.7071067690849304
            ]
        },
        {
            "name" : "Point",
            "translation" : [
                -0.02770768292248249,
                0.6409814953804016,
                0.36133021116256714
            ]
        }
    ],
    "materials" : [
        {
            "doubleSided" : true,
            "emissiveFactor" : [
                0,
                0,
                0
            ],
            "name" : "DarkBlue",
            "pbrMetallicRoughness" : {
                "baseColorFactor" : [
                    0.07227184623479843,
                    0.32314327359199524,
                    1,
                    1
                ],
                "metallicFactor" : 0,
                "roughnessFactor" : 1
            }
        },
        {
            "doubleSided" : true,
            "emissiveFactor" : [
                0,
                0,
                0
            ],
            "name" : "Black",
            "pbrMetallicRoughness" : {
                "baseColorFactor" : [
                    0,
                    0,
                    0,
                    1
                ],
                "metallicFactor" : 0,
                "roughnessFactor" : 1
            }
        },
        {
            "doubleSided" : true,
            "emissiveFactor" : [
                0,
                0,
                0
            ],
            "name" : "LightBlue",
            "pbrMetallicRoughness" : {
                "baseColorFactor" : [
                    0.17144113779067993,
                    0.539479672908783,
                    0.9646862149238586,
                    1
                ],
                "metallicFactor" : 0,
                "roughnessFactor" : 1
            }
        }
    ],
    "meshes" : [
        {
            "name" : "Text.002",
            "primitives" : [
                {
                    "attributes" : {
                        "POSITION" : 0,
                        "NORMAL" : 1
                    },
                    "indices" : 2
                }
            ]
        },
        {
            "name" : "Text.003",
            "primitives" : [
                {
                    "attributes" : {
                        "POSITION" : 3,
                        "NORMAL" : 4,
                        "JOINTS_0" : 5,
                        "WEIGHTS_0" : 6
                    },
                    "indices" : 7,
                    "material" : 0
                },
                {
                    "attributes" : {
                        "POSITION" : 8,
                        "NORMAL" : 9,
                        "JOINTS_0" : 10,
                        "WEIGHTS_0" : 11
                    },
                    "indices" : 12,
                    "material" : 1
                },
                {
                    "attributes" : {
                        "POSITION" : 13,
                        "NORMAL" : 14,
                        "JOINTS_0" : 15,
                        "WEIGHTS_0" : 16
                    },
                    "indices" : 17,
                    "material" : 2
                }
            ]
        },
        {
            "name" : "Text.004",
            "primitives" : [
                {
                    "attributes" : {
                        "POSITION" : 18,
                        "NORMAL" : 19
                    },
                    "indices" : 20,
                    "material" : 0
                },
                {
                    "attributes" : {
                        "POSITION" : 21,
                        "NORMAL" : 22
                    },
                    "indices" : 23,
                    "material" : 1
                },
                {
                    "attributes" : {
                        "POSITION" : 24,
                        "NORMAL" : 25
                    },
                    "indices" : 26,
                    "material" : 2
                }
            ]
        }
    ],
    "accessors" : [
        {
            "bufferView" : 0,
            "componentType" : 5126,
            "count" : 227,
            "max" : [
                0.7040000557899475,
                1.718806430517361e-08,
                0.28890037536621094
            ],
            "min" : [
                0.07600000500679016,
                -0.44215846061706543,
                -0.28890037536621094
            ],
            "type" : "VEC3"
        },
        {
            "bufferView" : 1,
            "componentType" : 5126,
            "count" : 227,
            "type" : "VEC3"
        },
        {
            "bufferView" : 2,
            "componentType" : 5123,
            "count" : 414,
            "type" : "SCALAR"
        },
        {
            "bufferView" : 3,
            "componentType" : 5126,
            "count" : 22,
            "max" : [
                0.5109078884124756,
                1.718806430517361e-08,
                0.2887829542160034
            ],
            "min" : [
                0.02858685329556465,
                -0.46861732006073,
                -0.32548701763153076
            ],
            "type" : "VEC3"
        },
        {
            "bufferView" : 4,
            "componentType" : 5126,
            "count" : 22,
            "type" : "VEC3"
        },
        {
            "bufferView" : 5,
            "componentType" : 5123,
            "count" : 22,
            "type" : "VEC4"
        },
        {
            "bufferView" : 6,
            "componentType" : 5126,
            "count" : 22,
            "type" : "VEC4"
        },
        {
            "bufferView" : 7,
            "componentType" : 5123,
            "count" : 42,
            "type" : "SCALAR"
        },
        {
            "bufferView" : 8,
            "componentType" : 5126,
            "count" : 92,
            "max" : [
                0.7040000557899475,
                1.718806430517361e-08,
                0.28890037536621094
            ],
            "min" : [
                0.07600000500679016,
                1.3213448113447157e-08,
                -0.28890037536621094
            ],
            "type" : "VEC3"
        },
        {
            "bufferView" : 9,
            "componentType" : 5126,
            "count" : 92,
            "type" : "VEC3"
        },
        {
            "bufferView" : 10,
            "componentType" : 5123,
            "count" : 92,
            "type" : "VEC4"
        },
        {
            "bufferView" : 11,
            "componentType" : 5126,
            "count" : 92,
            "type" : "VEC4"
        },
        {
            "bufferView" : 12,
            "componentType" : 5123,
            "count" : 144,
            "type" : "SCALAR"
        },
        {
            "bufferView" : 13,
            "componentType" : 5126,
            "count" : 58,
            "max" : [
                0.6045467257499695,
                1.718806430517361e-08,
                0.2887829542160034
            ],
            "min" : [
                0.07600000500679016,
                -0.44215846061706543,
                -0.28890037536621094
            ],
            "type" : "VEC3"
        },
        {
            "bufferView" : 14,
            "componentType" : 5126,
            "count" : 58,
            "type" : "VEC3"
        },
        {
            "bufferView" : 15,
            "componentType" : 5123,
            "count" : 58,
            "type" : "VEC4"
        },
        {
            "bufferView" : 16,
            "componentType" : 5126,
            "count" : 58,
            "type" : "VEC4"
        },
        {
            "bufferView" : 17,
            "componentType" : 5123,
            "count" : 144,
            "type" : "SCALAR"
        },
        {
            "bufferView" : 18,
            "componentType" : 5126,
            "count" : 116,
            "max" : [
                0.5570985078811646,
                1.718806430517361e-08,
                0.2887829542160034
            ],
            "min" : [
                0.02858685329556465,
                -0.4744027554988861,
                -0.3512042164802551
            ],
            "type" : "VEC3"
        },
        {
            "bufferView" : 19,
            "componentType" : 5126,
            "count" : 116,
            "type" : "VEC3"
        },
        {
            "bufferView" : 20,
            "componentType" : 5123,
            "count" : 228,
            "type" : "SCALAR"
        },
        {
            "bufferView" : 21,
            "componentType" : 5126,
            "count" : 94,
            "max" : [
                0.6971953511238098,
                1.691611650755931e-08,
                0.2827047109603882
            ],
            "min" : [
                0.08281409740447998,
                1.483634548549162e-08,
                -0.2827047109603882
            ],
            "type" : "VEC3"
        },
        {
            "bufferView" : 22,
            "componentType" : 5126,
            "count" : 94,
            "type" : "VEC3"
        },
        {
            "bufferView" : 23,
            "componentType" : 5123,
            "count" : 144,
            "type" : "SCALAR"
        },
        {
            "bufferView" : 24,
            "componentType" : 5126,
            "count" : 154,
            "max" : [
                0.7040000557899475,
                1.718806430517361e-08,
                0.28890037536621094
            ],
            "min" : [
                0.07600000500679016,
                -0.44215846061706543,
                -0.28890037536621094
            ],
            "type" : "VEC3"
        },
        {
            "bufferView" : 25,
            "componentType" : 5126,
            "count" : 154,
            "type" : "VEC3"
        },
        {
            "bufferView" : 26,
            "componentType" : 5123,
            "count" : 246,
            "type" : "SCALAR"
        }
    ],
    "bufferViews" : [
        {
            "buffer" : 0,
            "byteLength" : 2724,
            "byteOffset" : 0
        },
        {
            "buffer" : 0,
            "byteLength" : 2724,
            "byteOffset" : 2724
        },
        {
            "buffer" : 0,
            "byteLength" : 828,
            "byteOffset" : 5448
        },
        {
            "buffer" : 0,
            "byteLength" : 264,
            "byteOffset" : 6276
        },
        {
            "buffer" : 0,
            "byteLength" : 264,
            "byteOffset" : 6540
        },
        {
            "buffer" : 0,
            "byteLength" : 176,
            "byteOffset" : 6804
        },
        {
            "buffer" : 0,
            "byteLength" : 352,
            "byteOffset" : 6980
        },
        {
            "buffer" : 0,
            "byteLength" : 84,
            "byteOffset" : 7332
        },
        {
            "buffer" : 0,
            "byteLength" : 1104,
            "byteOffset" : 7416
        },
        {
            "buffer" : 0,
            "byteLength" : 1104,
            "byteOffset" : 8520
        },
        {
            "buffer" : 0,
            "byteLength" : 736,
            "byteOffset" : 9624
        },
        {
            "buffer" : 0,
            "byteLength" : 1472,
            "byteOffset" : 10360
        },
        {
            "buffer" : 0,
            "byteLength" : 288,
            "byteOffset" : 11832
        },
        {
            "buffer" : 0,
            "byteLength" : 696,
            "byteOffset" : 12120
        },
        {
            "buffer" : 0,
            "byteLength" : 696,
            "byteOffset" : 12816
        },
        {
            "buffer" : 0,
            "byteLength" : 464,
            "byteOffset" : 13512
        },
        {
            "buffer" : 0,
            "byteLength" : 928,
            "byteOffset" : 13976
        },
        {
            "buffer" : 0,
            "byteLength" : 288,
            "byteOffset" : 14904
        },
        {
            "buffer" : 0,
            "byteLength" : 1392,
            "byteOffset" : 15192
        },
        {
            "buffer" : 0,
            "byteLength" : 1392,
            "byteOffset" : 16584
        },
        {
            "buffer" : 0,
            "byteLength" : 456,
            "byteOffset" : 17976
        },
        {
            "buffer" : 0,
            "byteLength" : 1128,
            "byteOffset" : 18432
        },
        {
            "buffer" : 0,
            "byteLength" : 1128,
            "byteOffset" : 19560
        },
        {
            "buffer" : 0,
            "byteLength" : 288,
            "byteOffset" : 20688
        },
        {
            "buffer" : 0,
            "byteLength" : 1848,
            "byteOffset" : 20976
        },
        {
            "buffer" : 0,
            "byteLength" : 1848,
            "byteOffset" : 22824
        },
        {
            "buffer" : 0,
            "byteLength" : 492,
            "byteOffset" : 24672
        }
    ],
    "buffers" : [
        {
            "byteLength" : 25164,
            "uri" : "data:application/octet-stream;base64,"
        }
    ]
}
